<?xml version="1.0" encoding="utf-8"?>
<svg class="logo" version="1.1" xmlns="http://www.w3.org/2000/svg" xmlns:xlink="http://www.w3.org/1999/xlink" x="0px" y="0px"
	 viewBox="0 0 200 200" enable-background="new 0 0 200 200" xml:space="preserve">
<g id="Layer_28">
	<g id="desktop_-_basic">
			<g>
				<path fill="#a31f34" id="slash" d="M119.4,89.5h2.3l-6.9,20h-2.3L119.4,89.5z"/>
			</g>
			<path fill="#424242" d="M44.4,102.8l-4-8.7v12.9h-1.2V91.6h1.3l4.6,9.9l4.6-9.9h1.3v15.3h-1.2V94l-4,8.7H44.4z"/>
			<path fill="#424242" d="M56.7,106.9h-1.2V91.6h1.2V106.9z"/>
			<path fill="#424242" d="M65.4,106.9h-1.2V92.7h-4.2v-1.2h9.7v1.2h-4.2V106.9z"/>
			<path fill="#424242" d="M83.9,96.2h-2.3c-0.2-1.8-1.7-2.6-3.1-2.6c-1.5,0-3.2,0.9-3.2,3.1v4.9c0,2.1,1.6,3.1,3.2,3.1
				s3.2-0.9,3.2-3.1v-1h-3.2v-2.3H84v3.2c0,3.3-2.2,5.4-5.5,5.4S73,105,73,101.7v-4.9c0-3.3,2.2-5.4,5.5-5.4
				C81.6,91.3,83.7,93.2,83.9,96.2z"/>
			<path fill="#424242" d="M87.1,96.7c0-3.3,2.2-5.4,5.5-5.4s5.5,2.1,5.5,5.4v4.9c0,3.3-2.2,5.4-5.5,5.4s-5.5-2.1-5.5-5.4V96.7z
				 M95.7,96.7c0-2.1-1.6-3.1-3.2-3.1s-3.2,0.9-3.2,3.1v4.9c0,2.1,1.6,3.1,3.2,3.1s3.2-0.9,3.2-3.1V96.7z"/>
			<path fill="#424242" d="M107.8,106.9h-2.4L100,91.6h2.4l4.2,11.9l4.2-11.9h2.4L107.8,106.9z"/>
			<path fill="#424242" d="M125,91.6h2.3v13h6.7v2.3h-9V91.6z"/>
			<path fill="#424242" d="M145.6,103.2h-5.7l-1.3,3.7h-2.4l5.4-15.3h2.4l5.4,15.3h-2.4L145.6,103.2z M144.9,101l-2.1-6.1l-2.1,6.1
				H144.9z"/>
			<path fill="#424242" d="M151.5,91.6h5.9c3,0,4.7,1.7,4.7,4.4c0,1.3-0.5,2.4-1.5,3.1c1.3,0.8,1.9,2.1,1.9,3.4
				c0,2.7-1.6,4.4-4.7,4.4h-6.3V91.6z M153.9,93.9V98h3.6c1.4,0,2.3-0.7,2.3-2.1c0-1.3-0.9-2.1-2.3-2.1H153.9z M153.9,100.3v4.2h3.9
				c1.4,0,2.3-0.7,2.3-2.1c0-1.4-0.9-2.1-2.3-2.1H153.9z"/>
	</g>
</g>
</svg>
